<?xml version="1.0" encoding="UTF-8" standalone="no"?>
<svg
   viewBox="0 0 968 580"
   width="968"
   height="580"
   version="1.1"
   id="svg834"
   sodipodi:docname="Project logo.svg"
   inkscape:version="1.2.2 (732a01da63, 2022-12-09)"
   xmlns:inkscape="http://www.inkscape.org/namespaces/inkscape"
   xmlns:sodipodi="http://sodipodi.sourceforge.net/DTD/sodipodi-0.dtd"
   xmlns="http://www.w3.org/2000/svg"
   xmlns:svg="http://www.w3.org/2000/svg">
  <defs
     id="defs838" />
  <sodipodi:namedview
     id="namedview836"
     pagecolor="#505050"
     bordercolor="#eeeeee"
     borderopacity="1"
     inkscape:showpageshadow="0"
     inkscape:pageopacity="0"
     inkscape:pagecheckerboard="0"
     inkscape:deskcolor="#505050"
     showgrid="false"
     inkscape:zoom="0.95327929"
     inkscape:cx="620.48972"
     inkscape:cy="446.35398"
     inkscape:window-width="1920"
     inkscape:window-height="1001"
     inkscape:window-x="-9"
     inkscape:window-y="-9"
     inkscape:window-maximized="1"
     inkscape:current-layer="svg834" />
  <g
     fill="#0B6463"
     fill-opacity="1.00"
     stroke="None"
     id="g492">
    <path
       d=" M 371.00 37.00  C 377.50 36.67 376.00 42.04 376.00 47.00 C 376.48 42.01 378.68 35.04 371.00 37.00 Z"
       id="path490" />
  </g>
  <g
     fill="#13C9C1"
     fill-opacity="1.00"
     stroke="None"
     id="g496">
    <path
       d=" M 504.00 169.00  C 503.53 169.12 502.93 169.87 502.00 170.00 C 500.07 170.79 497.56 171.46 495.00 171.00 C 497.90 175.83 507.74 171.93 512.00 176.00 C 558.70 171.40 607.74 158.63 640.00 122.00 C 639.33 146.17 641.33 171.66 639.00 195.00 C 638.99 197.24 640.08 198.72 640.00 201.00 C 640.81 204.87 639.66 204.78 638.00 205.00 C 635.32 205.35 631.76 203.24 629.00 203.00 C 626.36 202.77 623.63 203.29 621.00 203.00 C 614.55 202.28 614.21 198.50 611.00 194.00 C 605.69 186.57 598.42 179.87 589.92 185.92 C 581.43 191.98 573.20 192.13 564.93 196.93 C 556.65 201.72 547.09 200.02 543.08 210.08 C 539.06 220.13 553.15 230.19 561.22 224.22 C 569.30 218.26 565.43 206.77 575.25 203.25 C 585.06 199.73 588.61 193.56 598.00 190.00 C 598.85 192.35 602.24 193.23 602.00 196.00 C 604.70 199.28 608.29 201.90 610.00 206.00 C 595.77 213.82 589.24 230.47 594.00 246.00 C 599.28 255.58 605.86 265.48 618.00 267.00 C 606.82 280.68 589.10 289.13 573.00 296.00 C 571.36 296.65 568.79 297.26 567.00 298.00 C 554.86 303.00 540.84 309.83 526.93 309.93 C 513.01 310.02 517.75 282.18 512.07 272.93 C 506.39 263.67 511.41 239.54 498.77 234.23 C 486.13 228.92 463.26 231.39 461.67 246.67 C 460.08 261.96 452.66 274.69 452.00 290.00 C 451.94 291.33 452.06 292.67 452.00 294.00 C 452.52 295.96 454.91 299.65 455.00 302.00 C 457.35 299.69 456.44 294.60 460.00 293.00 C 460.06 292.01 460.00 290.99 460.00 290.00 C 460.00 287.07 460.60 284.25 461.00 282.00 C 461.21 278.41 462.29 275.39 463.00 272.00 C 463.56 269.36 464.44 266.24 465.00 264.00 C 465.61 258.07 466.70 242.55 473.33 240.33 C 479.96 238.11 495.86 238.05 499.00 245.00 C 501.74 251.07 501.29 259.05 502.00 266.00 C 502.32 269.08 503.55 272.02 504.00 275.00 C 507.08 283.04 509.46 290.08 511.00 299.00 C 511.62 302.62 512.11 306.75 514.00 310.00 C 522.00 319.55 532.31 316.59 542.78 313.78 C 553.25 310.97 562.55 307.93 572.31 304.31 C 582.06 300.68 589.53 296.32 598.31 291.31 C 607.08 286.29 612.84 282.51 620.75 275.75 C 628.67 268.99 632.66 264.45 640.25 256.25 C 647.83 248.04 647.62 235.95 647.00 224.00 C 646.38 212.05 647.27 197.28 647.00 185.00 C 646.73 172.72 647.07 159.25 647.00 147.00 C 646.93 134.75 646.94 119.85 647.00 108.00 C 647.06 96.15 647.26 83.82 641.75 74.25 C 636.24 64.67 632.63 61.33 624.25 53.75 C 615.86 46.18 611.41 44.47 600.23 38.77 C 589.05 33.07 590.13 51.44 591.00 63.00 C 591.87 74.56 590.16 89.67 591.00 102.00 C 591.84 114.33 589.60 127.19 591.00 140.00 C 592.40 152.81 579.67 154.00 569.68 157.68 C 559.69 161.35 549.00 163.34 538.22 165.22 C 527.44 167.11 515.48 169.00 504.00 169.00 M 617.00 58.00  C 617.62 58.38 618.36 58.56 619.00 59.00 C 633.81 69.19 644.34 91.21 637.67 107.67 C 631.01 124.13 617.29 136.13 602.00 144.00 C 600.88 144.57 599.76 146.45 598.00 146.00 C 598.67 112.83 596.67 78.35 599.00 46.00 C 606.16 48.02 611.11 54.41 617.00 58.00 M 559.00 211.00  C 562.34 217.52 552.72 222.55 550.00 215.00 C 549.93 214.80 549.68 206.06 552.00 208.00 C 555.13 206.56 557.94 208.92 559.00 211.00 M 600.00 239.00  C 599.53 236.35 599.50 234.61 600.00 232.00 C 601.48 212.40 624.09 204.03 640.00 214.00 C 640.41 228.89 642.66 247.31 630.08 257.08 C 617.51 266.85 600.81 252.06 600.00 239.00 Z"
       id="path494" />
  </g>
  <g
     fill="#0FAEA6"
     fill-opacity="1.00"
     stroke="None"
     id="g500">
    <path
       d=" M 322.00 86.00  C 319.07 99.01 321.43 113.39 321.00 127.00 C 320.57 140.61 320.72 156.45 321.00 170.00 C 321.28 183.55 319.76 198.94 321.00 212.00 C 322.24 225.06 316.71 241.27 324.00 252.00 C 332.00 263.78 345.12 275.18 357.00 283.00 C 359.21 284.45 361.05 286.65 363.00 288.00 C 386.02 300.42 411.32 314.18 438.00 316.00 C 440.57 316.17 454.82 318.16 455.74 314.74 C 456.67 311.33 458.03 302.49 459.00 299.00 C 459.35 296.91 459.86 295.16 460.00 293.00 C 456.44 294.60 457.35 299.69 455.00 302.00 C 454.91 299.65 452.52 295.96 452.00 294.00 C 451.94 295.47 452.30 297.93 451.00 299.00 C 452.39 303.82 453.02 309.49 448.00 310.00 C 442.71 310.53 437.52 308.81 433.00 308.00 C 413.83 306.70 396.42 297.10 379.25 288.75 C 362.09 280.39 352.33 272.10 337.75 257.25 C 323.17 242.40 328.20 215.70 328.00 194.00 C 327.80 172.30 327.32 142.50 329.00 121.00 C 330.74 123.36 332.55 125.51 334.00 128.00 C 337.28 131.76 342.21 136.89 346.00 140.00 C 390.61 171.23 446.00 178.10 501.00 177.00 C 502.78 176.83 505.55 175.99 508.00 176.00 C 509.31 176.01 510.70 176.13 512.00 176.00 C 507.74 171.93 497.90 175.83 495.00 171.00 C 497.56 171.46 500.07 170.79 502.00 170.00 C 500.09 170.28 497.93 170.00 496.00 170.00 C 461.02 170.00 425.32 168.45 394.00 156.00 C 392.77 155.51 391.30 155.40 390.00 155.00 C 385.04 153.62 380.78 150.78 376.00 149.00 C 376.00 115.00 376.00 81.00 376.00 47.00 C 376.00 42.04 377.50 36.67 371.00 37.00 C 350.86 42.12 326.59 65.62 322.00 86.00 M 348.00 132.00  C 345.09 129.51 342.44 126.86 340.00 124.00 C 338.64 122.41 337.22 120.63 336.00 119.00 C 314.74 90.40 341.45 57.22 369.00 46.00 C 369.00 79.33 369.00 112.67 369.00 146.00 C 361.79 141.61 354.36 137.75 348.00 132.00 Z"
       id="path498" />
  </g>
  <g
     fill="#13847C"
     fill-opacity="1.00"
     stroke="None"
     id="g508">
    <path
       d=" M 602.00 144.00  C 600.87 144.22 600.03 144.41 599.00 145.00 C 599.00 112.00 599.00 79.00 599.00 46.00 C 596.67 78.35 598.67 112.83 598.00 146.00 C 599.76 146.45 600.88 144.57 602.00 144.00 Z"
       id="path506" />
  </g>
  <g
     fill="#0D6F73"
     fill-opacity="1.00"
     stroke="None"
     id="g532">
    <path
       d=" M 348.00 132.00  C 346.31 130.31 344.81 127.66 343.00 126.00 C 342.22 125.28 340.83 124.76 340.00 124.00 C 342.44 126.86 345.09 129.51 348.00 132.00 Z"
       id="path530" />
  </g>
  <g
     fill="#06655F"
     fill-opacity="1.00"
     stroke="None"
     id="g536">
    <path
       d=" M 346.00 140.00  C 342.21 136.89 337.28 131.76 334.00 128.00 C 337.13 132.21 341.64 136.95 346.00 140.00 Z"
       id="path534" />
  </g>
  <g
     fill="#09676D"
     fill-opacity="1.00"
     stroke="None"
     id="g548">
    <path
       d=" M 496.00 170.00  C 497.93 170.00 500.09 170.28 502.00 170.00 C 502.93 169.87 503.53 169.12 504.00 169.00 C 501.23 169.00 498.10 169.80 496.00 170.00 Z"
       id="path546" />
  </g>
  <g
     fill="#10B1A8"
     fill-opacity="1.00"
     stroke="None"
     id="g552">
    <path
       d=" M 382.00 238.00  C 421.12 231.61 414.38 172.37 375.00 174.00 C 335.62 175.63 334.49 236.32 374.00 238.00 C 377.75 246.38 378.02 262.49 389.00 264.00 C 399.98 265.50 412.37 255.30 422.33 256.33 C 432.29 257.36 442.58 265.25 448.67 252.67 C 454.76 240.09 433.67 229.46 427.75 240.75 C 421.84 252.04 412.87 250.15 400.69 254.69 C 388.52 259.24 382.55 251.21 382.00 238.00 M 389.00 228.00  C 388.56 228.16 388.00 228.00 388.00 228.00 C 386.16 230.95 384.04 230.37 381.00 231.00 C 377.25 231.78 373.74 232.12 370.00 231.00 C 368.22 230.47 366.73 229.78 365.00 229.00 C 361.26 227.31 358.44 225.67 356.00 222.00 C 342.09 201.10 360.31 177.31 383.00 181.00 C 405.69 184.69 408.70 220.89 389.00 228.00 M 438.00 243.00  C 444.66 244.45 441.98 256.61 435.00 254.00 C 428.02 251.39 431.83 241.65 438.00 243.00 Z"
       id="path550" />
  </g>
  <g
     fill="#0D666C"
     fill-opacity="1.00"
     stroke="None"
     id="g556">
    <path
       d=" M 501.00 177.00  C 503.49 176.95 506.14 176.25 508.00 176.00 C 505.55 175.99 502.78 176.83 501.00 177.00 Z"
       id="path554" />
  </g>
  <g
     fill="#0FAFA3"
     fill-opacity="1.00"
     stroke="None"
     id="g572">
    <path
       d=" M 368.00 193.00  C 366.93 193.77 363.70 196.98 363.00 198.00 C 355.36 211.14 370.52 227.84 384.00 220.00 C 386.22 218.48 387.30 215.13 390.00 214.00 C 393.54 208.37 391.33 203.66 390.00 198.00 C 387.21 196.84 385.51 193.15 383.00 192.00 C 378.26 190.31 372.36 190.33 368.00 193.00 M 380.00 198.00  C 389.68 200.94 383.79 218.76 373.78 214.22 C 363.77 209.68 368.44 194.49 380.00 198.00 Z"
       id="path570" />
  </g>
  <g
     fill="#0C7870"
     fill-opacity="1.00"
     stroke="None"
     id="g580">
    <path
       d=" M 363.00 198.00  C 363.70 196.98 366.93 193.77 368.00 193.00 C 366.08 194.18 364.17 195.99 363.00 198.00 Z"
       id="path578" />
  </g>
  <g
     fill="#0A5C5C"
     fill-opacity="1.00"
     stroke="None"
     id="g600">
    <path
       d=" M 638.00 205.00  C 639.66 204.78 640.81 204.87 640.00 201.00 C 640.00 201.00 639.14 201.23 639.00 201.00 C 638.81 202.56 639.41 204.06 638.00 205.00 Z"
       id="path598" />
  </g>
  <g
     fill="#1A878C"
     fill-opacity="1.00"
     stroke="None"
     id="g604">
    <path
       d=" M 621.00 203.00  C 623.63 203.29 626.36 202.77 629.00 203.00 C 628.23 202.63 628.03 202.34 627.00 202.00 C 624.85 201.67 622.35 202.98 621.00 203.00 Z"
       id="path602" />
  </g>
  <g
     fill="#178884"
     fill-opacity="1.00"
     stroke="None"
     id="g612">
    <path
       d=" M 550.00 215.00  C 549.74 213.06 550.19 211.64 551.00 210.00 C 551.09 209.83 551.97 208.02 552.00 208.00 C 549.68 206.06 549.93 214.80 550.00 215.00 Z"
       id="path610" />
  </g>
  <g
     fill="#148781"
     fill-opacity="1.00"
     stroke="None"
     id="g628">
    <path
       d=" M 384.00 220.00  C 386.20 218.72 387.87 216.49 390.00 215.00 C 390.00 215.00 389.77 214.36 390.00 214.00 C 387.30 215.13 386.22 218.48 384.00 220.00 Z"
       id="path626" />
  </g>
  <g
     fill="#117F7F"
     fill-opacity="1.00"
     stroke="None"
     id="g632">
    <path
       d=" M 365.00 229.00  C 362.34 227.52 358.09 224.67 356.00 222.00 C 358.44 225.67 361.26 227.31 365.00 229.00 Z"
       id="path630" />
  </g>
  <g
     fill="#0F7776"
     fill-opacity="1.00"
     stroke="None"
     id="g640">
    <path
       d=" M 381.00 231.00  C 377.70 231.30 373.26 231.54 370.00 231.00 C 373.74 232.12 377.25 231.78 381.00 231.00 Z"
       id="path638" />
  </g>
  <g
     fill="#077C77"
     fill-opacity="1.00"
     stroke="None"
     id="g644">
    <path
       d=" M 600.00 239.00  C 599.86 236.74 599.83 234.26 600.00 232.00 C 599.50 234.61 599.53 236.35 600.00 239.00 Z"
       id="path642" />
  </g>
  <g
     fill="#097675"
     fill-opacity="1.00"
     stroke="None"
     id="g672">
    <path
       d=" M 463.00 272.00  C 464.00 269.29 464.62 267.65 465.00 264.00 C 464.44 266.24 463.56 269.36 463.00 272.00 Z"
       id="path670" />
  </g>
  <g
     fill="#16C1B8"
     fill-opacity="1.00"
     stroke="None"
     id="g676">
    <path
       d=" M 560.00 272.00  C 555.92 269.37 545.46 278.68 541.07 278.07 C 536.69 277.47 524.66 283.18 529.78 287.22 C 534.90 291.26 544.53 282.66 548.93 282.93 C 553.32 283.19 565.97 275.85 560.00 272.00 Z"
       id="path674" />
  </g>
  <g
     fill="#046865"
     fill-opacity="1.00"
     stroke="None"
     id="g692">
    <path
       d=" M 460.00 290.00  C 460.17 289.36 460.84 289.10 461.00 288.00 C 461.28 286.06 460.89 283.96 461.00 282.00 C 460.60 284.25 460.00 287.07 460.00 290.00 Z"
       id="path690" />
  </g>
  <g
     fill="#096159"
     fill-opacity="1.00"
     stroke="None"
     id="g696">
    <path
       d=" M 357.00 284.00  C 357.12 284.26 357.75 284.75 358.00 285.00 C 359.42 286.44 361.39 287.13 363.00 288.00 C 361.05 286.65 359.21 284.45 357.00 283.00 C 357.00 283.00 356.81 283.59 357.00 284.00 Z"
       id="path694" />
  </g>
  <g
     fill="#14C4B8"
     fill-opacity="1.00"
     stroke="None"
     id="g708">
    <path
       d=" M 564.00 284.00  C 558.77 281.82 550.36 291.30 545.07 290.07 C 539.79 288.85 528.52 296.47 534.32 299.66 C 540.13 302.86 548.90 293.96 553.92 294.92 C 558.95 295.89 569.85 286.44 564.00 284.00 Z"
       id="path706" />
  </g>
  <g
     fill="#037D83"
     fill-opacity="1.00"
     stroke="None"
     id="g724">
    <path
       d=" M 438.00 316.00  C 438.78 316.24 438.74 316.84 440.00 317.00 C 451.92 318.47 456.07 317.74 458.00 307.00 C 458.19 304.20 458.55 301.73 459.00 299.00 C 458.03 302.49 456.67 311.33 455.74 314.74 C 454.82 318.16 440.57 316.17 438.00 316.00 Z"
       id="path722" />
  </g>
  <g
     fill="#FCFDFD"
     fill-opacity="1.00"
     stroke="None"
     id="g740">
    <path
       d=" M 145.00 543.00  C 148.17 543.48 151.79 543.00 155.00 543.00 C 170.33 543.00 185.67 543.00 201.00 543.00 C 206.33 543.00 211.67 543.00 217.00 543.00 C 231.48 543.00 251.03 541.66 265.00 543.00 C 278.97 544.34 291.98 533.01 287.93 520.07 C 283.87 507.14 279.00 498.74 273.00 487.00 C 271.64 484.33 270.18 481.74 269.00 479.00 C 261.86 462.46 248.42 439.58 241.31 423.69 C 234.19 407.81 222.10 375.67 201.70 384.69 C 181.29 393.72 181.35 419.91 169.77 435.77 C 158.20 451.63 152.97 474.57 142.77 490.77 C 132.57 506.97 119.07 535.66 145.00 543.00 M 236.00 503.00  C 218.00 503.00 200.00 503.00 182.00 503.00 C 188.89 484.10 200.35 466.72 208.00 448.00 C 219.04 465.07 226.60 484.77 236.00 503.00 Z"
       id="path738" />
  </g>
  <g
     fill="#778A89"
     fill-opacity="1.00"
     stroke="None"
     id="g744">
    <path
       d=" M 324.00 384.00  C 334.60 383.42 346.12 383.96 356.00 383.00 C 345.42 383.00 333.84 382.40 324.00 384.00 Z"
       id="path742" />
  </g>
  <g
     fill="#FCFDFC"
     fill-opacity="1.00"
     stroke="None"
     id="g748">
    <path
       d=" M 324.00 384.00  C 313.21 384.59 307.41 391.34 307.00 402.00 C 305.46 442.41 304.81 484.62 307.00 525.00 C 307.63 536.59 314.84 542.81 326.00 543.00 C 337.16 543.19 346.25 538.68 347.00 527.00 C 347.75 515.32 346.26 502.46 347.00 491.00 C 347.74 479.54 345.79 464.80 347.00 454.00 C 348.21 443.20 341.84 426.12 353.00 424.00 C 364.88 421.75 381.16 422.31 393.00 424.00 C 411.32 421.31 408.33 443.98 394.00 443.00 C 379.67 442.02 365.65 440.64 358.78 452.78 C 351.91 464.91 361.07 477.13 368.25 485.75 C 375.43 494.38 381.65 501.72 388.70 510.30 C 395.75 518.89 400.65 527.08 408.75 535.25 C 416.85 543.41 432.83 546.69 441.75 537.75 C 450.67 528.81 447.66 513.52 439.25 505.75 C 430.83 497.98 424.68 491.10 417.00 483.00 C 443.21 480.15 449.49 446.85 445.99 425.01 C 442.49 403.17 421.43 384.00 399.00 384.00 C 392.29 384.00 384.95 383.58 379.00 383.00 C 371.33 383.00 363.67 383.00 356.00 383.00 C 346.12 383.96 334.60 383.42 324.00 384.00 Z"
       id="path746" />
  </g>
  <g
     fill="#7A8989"
     fill-opacity="1.00"
     stroke="None"
     id="g752">
    <path
       d=" M 399.00 384.00  C 393.05 383.42 385.71 383.00 379.00 383.00 C 384.95 383.58 392.29 384.00 399.00 384.00 Z"
       id="path750" />
  </g>
  <g
     fill="#627876"
     fill-opacity="1.00"
     stroke="None"
     id="g756">
    <path
       d=" M 599.00 384.00  C 601.99 384.00 605.01 383.89 608.00 384.00 C 605.07 383.58 601.94 383.72 599.00 384.00 Z"
       id="path754" />
  </g>
  <g
     fill="#FCFDFC"
     fill-opacity="1.00"
     stroke="None"
     id="g760">
    <path
       d=" M 716.00 423.00  C 720.67 423.25 728.69 422.19 733.00 423.00 C 737.31 423.81 746.64 420.63 749.00 424.00 C 752.38 428.83 747.40 439.96 749.00 446.00 C 750.60 452.04 748.29 460.40 749.00 467.00 C 749.71 473.60 748.63 482.27 749.00 489.00 C 749.37 495.73 748.76 503.44 749.00 510.00 C 749.24 516.56 748.42 524.43 749.68 530.32 C 750.94 536.21 754.49 540.16 759.98 542.02 C 765.46 543.88 773.24 543.66 778.30 541.31 C 783.37 538.95 787.24 535.51 788.67 529.67 C 790.10 523.83 788.47 515.48 789.00 509.00 C 789.53 502.52 788.53 494.69 789.00 488.00 C 789.47 481.31 788.28 472.56 789.00 466.00 C 789.72 459.44 787.49 450.98 789.00 445.00 C 790.51 439.02 785.70 428.71 789.00 424.00 C 791.45 420.50 800.49 423.91 805.00 423.00 C 809.51 422.09 818.10 423.50 823.00 423.00 C 833.47 420.68 839.46 413.91 839.00 403.00 C 838.54 392.09 834.00 384.60 823.00 384.00 C 808.43 383.21 792.84 384.34 779.00 383.00 C 757.79 383.00 731.40 379.61 711.08 384.08 C 690.75 388.54 696.79 421.96 716.00 423.00 Z"
       id="path758" />
  </g>
  <g
     fill="#829492"
     fill-opacity="1.00"
     stroke="None"
     id="g764">
    <path
       d=" M 823.00 384.00  C 809.46 381.80 793.40 383.00 779.00 383.00 C 792.84 384.34 808.43 383.21 823.00 384.00 Z"
       id="path762" />
  </g>
  <g
     fill="#FBFCFC"
     fill-opacity="1.00"
     stroke="None"
     id="g768">
    <path
       d=" M 482.00 543.00  C 484.27 543.11 486.74 543.19 489.00 543.00 C 511.67 538.30 504.14 511.74 505.00 493.00 C 505.86 474.26 504.37 447.02 505.00 428.00 C 505.63 408.98 508.90 383.60 484.00 384.00 C 459.10 384.40 464.94 411.36 465.00 430.00 C 465.06 448.64 464.47 476.86 465.00 495.00 C 465.53 513.14 458.20 541.82 482.00 543.00 Z"
       id="path766" />
  </g>
  <g
     fill="#FBFCFC"
     fill-opacity="1.00"
     stroke="None"
     id="g772">
    <path
       d=" M 523.00 458.00  C 522.94 461.00 523.00 464.00 523.00 467.00 C 523.00 509.21 560.17 542.27 601.00 543.00 C 641.83 543.73 681.16 512.21 682.00 470.00 C 682.09 465.68 682.09 461.32 682.00 457.00 C 681.23 418.60 645.64 385.44 608.00 384.00 C 605.01 383.89 601.99 384.00 599.00 384.00 C 559.55 384.00 523.79 418.54 523.00 458.00 M 608.00 424.00  C 636.44 425.93 651.77 461.45 636.70 484.70 C 621.62 507.94 585.07 509.25 569.25 485.75 C 553.43 462.26 568.55 425.60 598.00 424.00 C 601.46 423.44 604.58 423.39 608.00 424.00 Z"
       id="path770" />
  </g>
  <g
     fill="#2D414B"
     fill-opacity="1.00"
     stroke="None"
     id="g776">
    <path
       d=" M 306.00 428.00  C 306.00 443.33 306.00 458.67 306.00 474.00 C 306.00 490.64 304.43 509.18 307.00 525.00 C 304.81 484.62 305.46 442.41 307.00 402.00 C 305.87 409.90 306.00 419.33 306.00 428.00 Z"
       id="path774" />
  </g>
  <g
     fill="#859598"
     fill-opacity="1.00"
     stroke="None"
     id="g784">
    <path
       d=" M 353.00 424.00  C 366.01 423.00 379.96 423.50 393.00 424.00 C 381.16 422.31 364.88 421.75 353.00 424.00 Z"
       id="path782" />
  </g>
  <g
     fill="#71858A"
     fill-opacity="1.00"
     stroke="None"
     id="g788">
    <path
       d=" M 598.00 424.00  C 601.25 423.82 604.75 423.78 608.00 424.00 C 604.58 423.39 601.46 423.44 598.00 424.00 Z"
       id="path786" />
  </g>
  <g
     fill="#87989C"
     fill-opacity="1.00"
     stroke="None"
     id="g792">
    <path
       d=" M 749.00 424.00  C 746.64 420.63 737.31 423.81 733.00 423.00 C 728.69 422.19 720.67 423.25 716.00 423.00 C 726.12 424.64 738.08 423.85 749.00 424.00 Z"
       id="path790" />
  </g>
  <g
     fill="#859398"
     fill-opacity="1.00"
     stroke="None"
     id="g796">
    <path
       d=" M 789.00 424.00  C 800.18 423.35 812.57 425.31 823.00 423.00 C 818.10 423.50 809.51 422.09 805.00 423.00 C 800.49 423.91 791.45 420.50 789.00 424.00 Z"
       id="path794" />
  </g>
  <g
     fill="#839A9F"
     fill-opacity="1.00"
     stroke="None"
     id="g808">
    <path
       d=" M 682.00 470.00  C 682.50 465.86 682.51 461.20 682.00 457.00 C 682.09 461.32 682.09 465.68 682.00 470.00 Z"
       id="path806" />
  </g>
  <g
     fill="#7D9393"
     fill-opacity="1.00"
     stroke="None"
     id="g812">
    <path
       d=" M 523.00 467.00  C 523.00 464.00 522.94 461.00 523.00 458.00 C 522.66 460.85 522.72 464.11 523.00 467.00 Z"
       id="path810" />
  </g>
  <g
     fill="#5D696F"
     fill-opacity="1.00"
     stroke="None"
     id="g824">
    <path
       d=" M 155.00 543.00  C 151.79 543.00 148.17 543.48 145.00 543.00 C 148.51 543.99 151.60 543.33 155.00 543.00 Z"
       id="path822" />
  </g>
  <g
     fill="#788B8E"
     fill-opacity="1.00"
     stroke="None"
     id="g828">
    <path
       d=" M 217.00 543.00  C 211.67 543.00 206.33 543.00 201.00 543.00 C 205.97 543.48 211.96 543.49 217.00 543.00 Z"
       id="path826" />
  </g>
  <g
     fill="#7D9294"
     fill-opacity="1.00"
     stroke="None"
     id="g832">
    <path
       d=" M 489.00 543.00  C 486.74 543.19 484.27 543.11 482.00 543.00 C 484.57 543.42 486.33 543.55 489.00 543.00 Z"
       id="path830" />
  </g>
</svg>
